<?xml version="1.0" encoding="UTF-8" standalone="no"?>
<!DOCTYPE svg PUBLIC "-//W3C//DTD SVG 1.1//EN" "http://www.w3.org/Graphics/SVG/1.1/DTD/svg11.dtd">
<svg width="100%" height="100%" viewBox="0 0 512 512" version="1.1" xmlns="http://www.w3.org/2000/svg" xmlns:xlink="http://www.w3.org/1999/xlink" xml:space="preserve" xmlns:serif="http://www.serif.com/" style="fill-rule:evenodd;clip-rule:evenodd;stroke-linejoin:round;stroke-miterlimit:2;">
    <path d="M416,208C416,253.9 401.1,296.3 376,330.7L502.6,457.4C515.1,469.9 515.1,490.2 502.6,502.7C490.1,515.2 469.8,515.2 457.3,502.7L330.7,376C296.3,401.2 253.9,416 208,416C93.1,416 0,322.9 0,208C0,93.1 93.1,0 208,0C322.9,0 416,93.1 416,208ZM208,352C286.996,352 352,286.996 352,208C352,129.004 286.996,64 208,64C129.004,64 64,129.004 64,208C64,286.996 129.004,352 208,352Z" style="fill:white;fill-rule:nonzero;stroke:black;stroke-width:1px;"/>
</svg>
