<?xml version="1.0" encoding="UTF-8" standalone="no"?><!DOCTYPE svg PUBLIC "-//W3C//DTD SVG 1.1//EN" "http://www.w3.org/Graphics/SVG/1.1/DTD/svg11.dtd"><svg width="100%" height="100%" viewBox="0 0 343 343" version="1.1" xmlns="http://www.w3.org/2000/svg" xmlns:xlink="http://www.w3.org/1999/xlink" xml:space="preserve" xmlns:serif="http://www.serif.com/" style="fill-rule:evenodd;clip-rule:evenodd;stroke-linejoin:round;stroke-miterlimit:2;"><g opacity="0.5"><g><path d="M201.25,2.917c-46.667,-8.334 -89.583,1.25 -128.333,28.333c-38.334,27.083 -62.084,63.75 -70,110.417c-7.5,41.25 -0.834,79.583 19.583,114.583l71.667,-50c-16.25,-36.25 -5,-80.417 28.75,-104.167c33.75,-23.75 79.166,-19.166 107.5,8.75l71.666,-50c-26.25,-31.666 -59.583,-50.833 -100.833,-57.916Zm47.5,133.75c16.25,36.25 5,80.416 -28.75,104.166c-33.75,23.75 -79.167,19.167 -107.5,-8.75l-71.667,50c25.834,31.25 59.584,50.417 100.834,57.917c46.666,8.333 89.166,-1.25 127.916,-27.917c38.75,-27.083 62.084,-63.75 70.417,-110.416c7.5,-41.25 0.833,-79.584 -19.583,-114.584l-71.667,49.584Z" style="fill:#d1d3d4;fill-rule:nonzero;"/></g><g><path d="M138.248,124.29c25.997,-18.203 61.882,-11.875 80.086,14.122c18.203,25.997 11.875,61.883 -14.123,80.086c-25.997,18.203 -61.882,11.875 -80.086,-14.122c-18.203,-25.997 -11.875,-61.883 14.122,-80.086Z" style="fill:#d1d3d4;"/></g></g></svg>